<svg xmlns="http://www.w3.org/2000/svg" viewBox="0 0 885.75 181.92"><g id="Layer_2" data-name="Layer 2"><g id="dark_background" data-name="dark background"><g id="iconGroup"><g id="surface1"><path d="M796.77,143.84a54.81,54.81,0,0,1-48.46-29.14,63.26,63.26,0,0,1-7.84-22.79c-4-26.15,4.43-63.19,49.12-91.61a88.93,88.93,0,0,0-81.67,85c-.06,1.2-.06,2.46-.06,3.72a88.93,88.93,0,0,0,82.93,88.73c7.12-4.43,25.13-19.33,35.36-42.43A55.1,55.1,0,0,1,796.77,143.84Z" fill="#00e0a7"/><path d="M883.65,69.59A89,89,0,0,0,796.77,0c-1.91,0-3.83.06-5.74.18-16.21,10.05-34.77,29.5-41.41,60.73a54.85,54.85,0,0,1,101.24,19h0a55.59,55.59,0,0,1,.72,9c0,1.32-.06,2.64-.12,4-.18,13.7-6.22,50.38-59.71,84.79-.06,0-.06.06-.12.06,1.67.12,3.41.18,5.14.18A89.13,89.13,0,0,0,883.65,69.59Z" fill="#00e0a7"/></g></g><g id="primary_textGroup" data-name="primary textGroup"><path d="M48.65,60.43H10.85V95.48h37.8q2.51,0,3.18-.75c.46-.49.69-1.53.69-3.11h0V64.29q0-2.49-.69-3.18c-.45-.45-1.51-.68-3.18-.68ZM34.93,102.84H10.85v27.82H0V53.07H53.39q9.86,0,9.86,9.85h0V93q0,9.86-9.86,9.85H46L63.5,130.66H52.27Z" fill="#fff"/><path d="M87.25,130.66V53.07h11v77.59Z" fill="#fff"/><path d="M184.5,62.92v13.6h-11V64.29q0-2.49-.69-3.18c-.46-.45-1.52-.68-3.18-.68H137.6a5,5,0,0,0-3.12.68q-.75.69-.75,3.18h0v55.15q0,2.49.75,3.18a5,5,0,0,0,3.12.68h32.18a5,5,0,0,0,3.12-.68q.75-.69.75-3.18h0V98.1H152.57V90.74H184.5v30.07q0,9.85-9.85,9.85h-42q-9.86,0-9.86-9.85h0V62.92q0-9.86,9.86-9.85h42q9.85,0,9.85,9.85Z" fill="#fff"/><path d="M263.89,88.12V53.07h11v77.59h-11V95.48H218v35.18H207V53.07h11V88.12Z" fill="#fff"/><path d="M288.77,53.07h68v7.36H328.19v70.23H317.34V60.43H288.77Z" fill="#fff"/><path d="M422.4,94.11h0V64.29q0-2.49-.75-3.18a5,5,0,0,0-3.12-.68H380.85V98h37.68q2.37,0,3.12-.75T422.4,94.11ZM370,130.66V53.07h53.27q9.86,0,9.85,9.85h0V95.48q0,9.85-9.85,9.86H380.85v25.32Z" fill="#fff"/><path d="M451.75,53.07H462.6v66.37q0,2.49.69,3.18c.46.45,1.52.68,3.18.68h33.44c1.66,0,2.72-.23,3.18-.68s.68-1.52.68-3.18h0V53.07H514.5v67.74q0,9.85-9.85,9.85h-43q-9.86,0-9.86-9.85h0Z" fill="#fff"/><path d="M590.89,53.07v7.36H549.1V90.24H586V97.6H549.1v33.06H538V53.07Z" fill="#fff"/><path d="M659.89,53.07v7.36H618.1V90.24H655V97.6H618.1v33.06H607V53.07Z" fill="#fff"/></g><g id="secondary_textGroup" data-name="secondary textGroup"><path d="M413.1,181.92a16.67,16.67,0,0,0,14.53-8.45l-3-1.69a13.25,13.25,0,1,1,0-13.11l3-1.69a16.7,16.7,0,1,0-14.53,24.94Z" fill="#00e0a7"/><path d="M459,181.49h3.81L451.06,149H447.2l-11.77,32.54h3.79l2.66-7.58h14.48Zm-16-10.9,6.11-17.53,6.08,17.53Z" fill="#00e0a7"/><path d="M495.61,149V175.7L475.49,149h-3.26v32.54h3.47V154.75l20.07,26.74H499V149Z" fill="#00e0a7"/><path d="M537.31,149V175.7L517.18,149h-3.25v32.54h3.48V154.75l20.06,26.74h3.26V149Z" fill="#00e0a7"/><path d="M575.26,181.49h3.79L567.29,149h-3.85l-11.77,32.54h3.79l2.66-7.58H572.6Zm-16-10.9,6.13-17.53,6.08,17.53Z" fill="#00e0a7"/><path d="M604.52,165a7.85,7.85,0,0,0,4.77-7.39c0-5.09-4-8.67-9-8.67H588.47v32.54h12.95c5,0,8.9-3.52,8.9-8.57A8.06,8.06,0,0,0,604.52,165Zm1.3-7.11a5.74,5.74,0,0,1-5.9,5.64h-8V152.43h8A5.59,5.59,0,0,1,605.82,157.9ZM601,178h-9.11V166.91H601a5.71,5.71,0,0,1,5.85,5.63A5.58,5.58,0,0,1,601,178Z" fill="#00e0a7"/><path d="M623.35,181.49h3.47V149h-3.47Z" fill="#00e0a7"/><path d="M649.92,181.92c5.53,0,10-3.3,10-9,0-11.06-15.83-8.35-15.83-16.1,0-3.26,2.66-4.84,5.69-4.84a6.94,6.94,0,0,1,5.87,2.87l2.71-2.26a11.07,11.07,0,0,0-8.68-4.08c-5,0-9.06,3.26-9.06,8.58,0,10.46,15.84,7.87,15.84,15.95,0,3.46-2.89,5.42-6.52,5.42a7.66,7.66,0,0,1-7.48-5l-3.15,1.84A11.17,11.17,0,0,0,649.92,181.92Z" fill="#00e0a7"/></g></g></g></svg>