<?xml version="1.0" standalone="no"?>
<!DOCTYPE svg PUBLIC "-//W3C//DTD SVG 20010904//EN"
 "http://www.w3.org/TR/2001/REC-SVG-20010904/DTD/svg10.dtd">
<svg version="1.0" xmlns="http://www.w3.org/2000/svg"
 width="888.000000pt" height="888.000000pt" viewBox="0 0 888.000000 888.000000"
 preserveAspectRatio="xMidYMid meet">
<metadata>
Created by potrace 1.14, written by Peter Selinger 2001-2017
</metadata>
<g transform="translate(0.000000,888.000000) scale(0.100000,-0.100000)"
fill="#000000" stroke="none">
<path d="M4175 8872 c-16 -2 -38 -11 -47 -19 -10 -9 -18 -12 -18 -7 0 5 -4 4
-8 -1 -4 -6 -27 -23 -52 -40 -49 -32 -262 -186 -270 -195 -3 -3 -21 -17 -40
-31 -19 -15 -46 -36 -60 -48 -104 -90 -142 -123 -199 -176 -84 -79 -221 -216
-221 -221 0 -2 -26 -31 -58 -64 -33 -33 -57 -60 -55 -60 2 0 -6 -11 -19 -24
-13 -13 -30 -32 -38 -42 -15 -19 -103 -129 -118 -149 -116 -148 -332 -477
-332 -504 0 -6 -3 -11 -7 -11 -5 0 -13 -10 -19 -23 -6 -12 -51 -101 -101 -197
-73 -144 -118 -237 -128 -270 -3 -9 -18 -44 -42 -100 -14 -30 -26 -62 -28 -70
-2 -8 -15 -43 -29 -77 -13 -35 -22 -63 -19 -63 3 0 1 -6 -5 -12 -9 -13 -89
-260 -98 -305 -2 -12 -9 -34 -14 -48 -5 -14 -7 -25 -4 -25 2 0 0 -8 -5 -17 -5
-10 -11 -31 -15 -48 -3 -16 -12 -57 -20 -90 -19 -74 -20 -98 -3 -68 29 51 71
118 77 123 3 3 21 28 40 55 19 28 36 52 39 55 3 3 35 41 71 85 77 96 238 259
335 340 39 32 72 61 75 65 3 3 21 17 40 30 19 13 37 27 40 30 10 11 213 142
239 153 14 6 28 15 31 18 7 10 187 99 199 99 6 0 11 5 11 10 0 6 8 10 18 10
10 0 23 5 30 12 7 7 12 9 12 5 0 -4 16 2 35 13 20 11 44 20 55 20 10 0 22 4
25 10 5 8 67 29 88 30 4 0 21 7 37 15 17 9 30 13 30 11 0 -3 12 -1 28 5 29 12
29 12 117 34 57 14 73 18 121 29 29 6 93 17 129 22 17 2 46 6 65 9 162 24 560
25 685 1 11 -2 40 -7 65 -10 43 -6 122 -20 184 -32 15 -3 60 -14 100 -25 39
-11 82 -22 95 -25 13 -3 34 -10 45 -16 12 -6 22 -11 23 -10 2 1 8 0 15 -3 38
-12 157 -55 183 -66 17 -6 37 -13 45 -15 8 -2 16 -8 18 -13 2 -6 10 -11 18
-11 19 0 234 -113 306 -160 33 -22 61 -40 63 -40 5 0 58 -36 110 -75 228 -170
398 -335 560 -545 82 -106 75 -98 106 -145 84 -131 99 -156 99 -164 0 -5 7
-14 15 -21 8 -7 13 -16 10 -20 -3 -5 -1 -10 3 -12 8 -3 96 -175 97 -188 1 -3
11 -27 23 -54 12 -27 22 -50 22 -52 0 -1 5 -15 12 -31 6 -15 12 -31 13 -35 2
-5 4 -10 5 -13 1 -3 3 -8 5 -12 1 -5 4 -15 8 -23 5 -14 29 -88 32 -100 1 -3 5
-12 8 -20 4 -8 9 -26 12 -40 3 -14 14 -63 25 -110 23 -94 39 -179 45 -225 1
-16 6 -55 10 -85 12 -101 14 -144 14 -335 0 -195 -3 -278 -14 -400 -9 -100
-25 -218 -41 -300 -3 -11 -7 -36 -10 -55 -3 -19 -8 -38 -10 -41 -4 -7 -16 -77
-17 -96 0 -7 -3 -13 -7 -13 -4 0 -7 -6 -7 -12 -1 -48 -115 -402 -176 -548 -6
-14 -10 -28 -9 -32 1 -5 -3 -8 -8 -8 -5 0 -9 -3 -8 -7 2 -9 -6 -26 -60 -143
-20 -41 -36 -77 -37 -80 -7 -28 -221 -414 -246 -444 -5 -6 -35 -51 -67 -101
-31 -49 -65 -99 -74 -109 -10 -11 -18 -23 -18 -26 0 -4 -8 -17 -17 -28 -10
-12 -29 -38 -43 -57 -14 -20 -52 -71 -85 -113 -33 -42 -74 -96 -91 -119 -17
-24 -34 -40 -37 -36 -4 3 -7 1 -7 -5 0 -10 -46 -67 -150 -186 -156 -179 -453
-469 -676 -661 -31 -27 -69 -60 -83 -72 -20 -17 -230 -185 -326 -261 -5 -4
-26 -19 -45 -32 -19 -14 -37 -27 -40 -30 -23 -24 -358 -260 -369 -260 -5 0
-11 -3 -13 -7 -4 -10 -145 -105 -173 -117 -43 -19 40 -25 288 -21 245 4 291 7
407 21 30 4 73 9 95 11 52 5 90 11 90 13 0 1 14 3 30 5 38 4 102 14 135 21 30
7 57 13 90 19 14 3 36 7 50 10 14 2 70 16 125 31 55 14 107 27 115 29 22 5
153 45 170 52 8 3 20 7 25 8 33 8 191 68 202 77 7 6 13 8 13 5 0 -6 48 12 105
38 17 8 55 24 85 36 30 13 127 60 215 104 142 72 181 94 260 142 11 7 52 31
90 54 39 23 72 45 75 48 3 4 30 22 60 41 30 19 61 40 68 47 7 7 26 20 42 30
17 9 30 21 30 25 0 4 7 8 15 8 8 0 15 4 15 8 0 4 12 15 28 24 15 9 39 28 54
42 15 14 30 26 34 26 4 0 16 10 28 23 11 12 31 29 42 37 73 51 362 331 478
463 70 80 232 282 255 317 8 14 18 27 22 30 3 3 17 21 30 41 13 20 49 74 80
120 30 46 64 100 75 119 10 19 22 37 25 40 17 16 230 425 234 450 1 3 9 20 18
38 10 17 15 32 12 32 -2 0 4 16 15 35 11 20 20 40 20 45 0 6 9 29 19 53 33 74
91 236 111 312 5 17 21 77 38 135 28 99 49 180 58 225 25 120 55 292 59 331 2
27 5 49 5 49 5 0 13 73 27 245 15 177 7 658 -12 800 -3 19 -7 58 -10 85 -8 66
-15 117 -20 135 -2 8 -7 38 -11 65 -3 28 -8 59 -11 70 -3 11 -6 27 -7 35 -1 9
-5 21 -10 28 -4 6 -5 12 -3 12 6 0 -18 111 -44 200 -7 25 -13 50 -14 55 -3 32
-89 301 -111 352 -8 17 -14 33 -14 36 0 3 -5 18 -12 34 -6 15 -12 33 -14 38
-1 6 -12 33 -24 60 -12 28 -25 59 -29 70 -33 80 -137 289 -199 400 -25 44 -54
97 -65 118 -10 20 -23 37 -27 37 -4 0 -11 11 -14 25 -4 14 -11 25 -16 25 -6 0
-10 5 -10 12 0 21 -229 346 -282 400 -10 10 -18 22 -18 27 0 5 -3 11 -7 13 -5
2 -33 32 -63 68 -30 36 -68 77 -84 93 -15 15 -26 27 -23 27 15 0 -289 293
-398 384 -38 32 -79 66 -90 75 -53 44 -228 173 -295 217 -41 27 -77 52 -80 55
-3 3 -10 8 -15 10 -6 2 -43 24 -83 49 -127 78 -375 208 -527 276 -156 70 -456
177 -585 209 -8 2 -51 13 -95 25 -80 21 -289 66 -355 76 -19 3 -60 9 -90 14
-30 5 -77 12 -105 16 -27 3 -68 7 -90 10 -22 3 -60 7 -85 9 -61 6 -607 12
-645 7z"/>
<path d="M3967 8854 c-1 -1 -33 -5 -72 -8 -38 -4 -77 -8 -85 -11 -8 -2 -35 -6
-60 -9 -25 -3 -56 -9 -70 -12 -14 -3 -37 -7 -51 -8 -14 -2 -31 -6 -38 -10 -7
-5 -15 -5 -18 -2 -3 3 -13 1 -22 -4 -10 -5 -35 -11 -57 -14 -21 -3 -66 -13
-99 -21 -33 -9 -69 -18 -79 -20 -10 -2 -60 -16 -110 -31 -50 -14 -95 -27 -101
-28 -5 -1 -21 -8 -35 -16 -14 -7 -25 -12 -25 -10 0 7 -165 -52 -310 -111 -16
-7 -32 -13 -35 -14 -18 -4 -157 -71 -286 -136 -198 -101 -454 -258 -604 -371
-43 -32 -255 -201 -260 -207 -3 -3 -43 -40 -90 -81 -128 -113 -314 -306 -416
-430 -16 -19 -33 -40 -39 -46 -31 -35 -181 -233 -215 -284 -8 -12 -27 -40 -42
-61 -16 -21 -28 -41 -28 -43 0 -3 -17 -31 -38 -63 -21 -32 -47 -74 -58 -93
-10 -19 -21 -37 -24 -40 -29 -29 -276 -537 -284 -585 -1 -5 -6 -17 -11 -25 -5
-8 -10 -19 -11 -25 -1 -5 -16 -47 -33 -93 -17 -45 -31 -86 -32 -90 -2 -11 -6
-22 -28 -87 -11 -33 -25 -78 -30 -100 -5 -22 -17 -67 -26 -100 -10 -33 -19
-69 -21 -80 -3 -17 -10 -48 -20 -87 -1 -5 -2 -9 -4 -10 -1 -2 -3 -12 -5 -23
-1 -11 -5 -33 -9 -50 -19 -100 -27 -144 -32 -180 -3 -22 -7 -53 -10 -70 -3
-16 -7 -48 -9 -70 -2 -22 -6 -58 -10 -80 -21 -149 -28 -628 -12 -815 15 -170
15 -167 31 -295 5 -34 43 -247 51 -285 3 -14 8 -36 11 -50 3 -14 12 -52 21
-85 8 -33 17 -68 19 -77 18 -80 56 -203 66 -215 6 -7 8 -13 5 -13 -6 0 74
-233 102 -295 5 -11 25 -58 45 -105 19 -47 51 -118 71 -158 19 -40 35 -76 35
-81 0 -5 7 -14 15 -21 9 -7 13 -15 11 -17 -2 -3 9 -26 25 -51 16 -25 29 -52
29 -59 0 -7 5 -13 10 -13 6 0 10 -5 10 -11 0 -25 283 -465 321 -499 3 -3 18
-23 35 -45 16 -22 35 -46 42 -53 7 -8 25 -30 40 -50 15 -20 34 -44 42 -52 8
-9 44 -50 80 -90 78 -89 262 -273 351 -351 124 -109 127 -112 319 -262 9 -7
43 -30 75 -52 33 -22 63 -44 67 -50 5 -7 8 -7 8 0 0 6 4 5 8 -2 9 -15 129 -93
142 -93 6 0 10 -4 10 -10 0 -5 4 -10 10 -10 5 0 34 -16 64 -35 79 -51 343
-185 471 -240 61 -26 119 -51 130 -56 30 -13 154 -59 205 -75 25 -9 52 -17 60
-20 8 -3 16 -5 17 -5 2 1 20 -6 40 -14 21 -8 65 -22 98 -31 33 -8 92 -24 130
-35 39 -10 84 -22 100 -25 32 -6 37 -7 75 -18 14 -3 41 -8 60 -10 19 -3 35 -5
35 -6 0 -2 27 -7 72 -13 21 -3 45 -8 53 -11 8 -2 38 -7 65 -11 28 -3 64 -8 80
-10 52 -7 122 -14 199 -20 59 -5 76 -3 89 9 9 9 18 16 21 16 3 0 35 21 71 47
37 27 77 55 88 63 12 8 36 27 52 42 17 16 33 28 37 28 4 0 13 6 20 13 7 6 33
30 58 51 185 161 394 365 520 507 36 40 75 83 88 95 12 13 22 27 22 33 0 5 3
11 8 13 4 1 28 28 52 58 25 30 47 57 50 60 13 13 131 172 171 230 24 36 50 71
57 78 6 7 12 17 12 22 0 5 6 15 13 22 22 22 143 221 239 393 16 28 112 222
134 270 10 22 23 44 28 48 6 5 0 5 -14 1 -14 -4 -27 -10 -30 -13 -14 -19 -316
-173 -365 -187 -5 -1 -38 -14 -72 -28 -35 -14 -69 -26 -78 -26 -8 0 -15 -4
-15 -8 0 -4 -8 -8 -18 -9 -10 -1 -47 -11 -83 -23 -35 -12 -71 -23 -80 -25 -8
-2 -44 -10 -80 -19 -83 -20 -176 -38 -214 -42 -16 -1 -43 -5 -59 -8 -105 -19
-444 -27 -591 -13 -116 11 -169 17 -195 24 -14 3 -32 5 -42 4 -9 -1 -19 3 -23
9 -3 6 -10 8 -15 5 -12 -8 -158 27 -285 67 -55 17 -104 32 -110 34 -49 10
-399 166 -415 185 -3 3 -20 12 -37 20 -18 8 -33 17 -33 21 0 5 -5 8 -11 8 -8
0 -162 97 -194 122 -5 5 -21 17 -34 28 -13 11 -27 20 -30 20 -3 0 -18 10 -31
23 -14 12 -55 46 -90 76 -96 80 -311 300 -355 364 -17 23 -105 141 -121 160
-7 9 -14 19 -14 21 0 3 -17 31 -38 63 -73 110 -277 486 -279 513 0 3 -8 23
-18 45 -9 22 -18 47 -21 55 -2 8 -22 66 -44 129 -22 62 -42 124 -45 137 -3 13
-7 36 -11 51 -3 15 -8 31 -11 37 -4 5 -10 26 -14 45 -4 20 -10 47 -13 61 -6
26 -35 177 -42 220 -3 14 -6 36 -9 50 -2 14 -7 50 -10 80 -3 30 -8 73 -10 95
-14 117 -18 221 -16 420 2 260 4 325 12 325 3 0 4 12 3 28 -1 15 5 74 13 132
8 58 16 120 16 137 1 18 6 33 11 33 5 0 7 2 4 6 -3 3 -2 22 3 42 5 20 12 53
15 72 2 19 14 71 25 115 11 44 21 87 23 95 15 63 78 271 93 310 4 8 7 17 7 20
3 13 61 160 77 197 11 23 19 45 19 48 0 6 23 57 97 212 13 28 27 54 31 58 4 4
7 10 7 14 0 12 158 287 210 365 25 38 45 73 45 77 0 5 5 9 10 9 6 0 10 7 10
15 0 8 4 15 8 15 4 0 16 15 27 33 10 17 23 37 27 42 4 6 19 24 33 41 14 18 25
35 25 39 0 3 6 12 13 19 6 7 23 28 37 46 14 18 30 38 35 44 6 6 22 27 36 46
15 19 38 47 52 62 14 15 31 36 39 46 65 93 542 572 570 572 4 0 8 4 8 9 0 4
26 29 58 54 31 25 72 58 89 74 49 42 101 84 109 86 3 1 21 14 38 30 26 23 271
203 332 244 11 7 52 35 92 62 39 28 72 47 72 43 0 -4 4 -2 8 4 4 6 16 16 27
22 17 10 12 12 -33 10 -29 -1 -53 -3 -55 -4z"/>
</g>
</svg>
